<svg width="697" height="200" viewBox="0 0 697 200" fill="none" xmlns="http://www.w3.org/2000/svg">
<path d="M259.084 36.392C263.508 36.392 267.563 36.866 271.25 37.814C274.937 38.6567 277.781 39.4993 279.782 40.342L275.2 59.144C273.093 58.196 270.776 57.5113 268.248 57.09C265.825 56.5633 263.561 56.3 261.454 56.3C258.61 56.3 256.187 56.7213 254.186 57.564C252.29 58.3013 250.763 59.3547 249.604 60.724C248.551 62.0933 247.761 63.726 247.234 65.622C246.813 67.518 246.602 69.572 246.602 71.784V75.892H275.674V95.484H246.602V159H223.06V71.468C223.06 60.724 226.062 52.192 232.066 45.872C238.175 39.552 247.181 36.392 259.084 36.392ZM352.023 75.892C347.283 91.9027 342.332 106.913 337.171 120.922C332.009 134.931 326.374 148.519 320.265 161.686C318.053 166.426 315.841 170.429 313.629 173.694C311.417 177.065 308.994 179.803 306.361 181.91C303.727 184.122 300.725 185.702 297.355 186.65C294.089 187.703 290.245 188.23 285.821 188.23C282.134 188.23 278.711 187.861 275.551 187.124C272.496 186.492 269.968 185.755 267.967 184.912L272.075 166.11C274.497 166.953 276.657 167.532 278.553 167.848C280.449 168.164 282.45 168.322 284.557 168.322C288.77 168.322 291.983 167.163 294.195 164.846C296.512 162.634 298.461 159.527 300.041 155.524C294.669 144.991 289.297 133.193 283.925 120.132C278.553 106.965 273.497 92.2187 268.757 75.892H293.721C294.774 80 295.985 84.4767 297.355 89.322C298.829 94.062 300.357 98.9073 301.937 103.858C303.517 108.703 305.097 113.443 306.677 118.078C308.362 122.713 309.942 126.926 311.417 130.718C312.786 126.926 314.208 122.713 315.683 118.078C317.157 113.443 318.579 108.703 319.949 103.858C321.423 98.9073 322.793 94.062 324.057 89.322C325.426 84.4767 326.637 80 327.691 75.892H352.023ZM366.749 116.814C366.749 124.082 368.381 129.928 371.647 134.352C374.912 138.776 379.757 140.988 386.183 140.988C388.289 140.988 390.238 140.935 392.029 140.83C393.819 140.619 395.294 140.409 396.453 140.198V97.38C394.978 96.432 393.029 95.642 390.607 95.01C388.289 94.378 385.919 94.062 383.497 94.062C372.331 94.062 366.749 101.646 366.749 116.814ZM419.995 156.314C417.888 156.946 415.465 157.578 412.727 158.21C409.988 158.737 407.091 159.211 404.037 159.632C401.087 160.053 398.033 160.369 394.873 160.58C391.818 160.896 388.869 161.054 386.025 161.054C379.178 161.054 373.069 160.053 367.697 158.052C362.325 156.051 357.795 153.207 354.109 149.52C350.422 145.728 347.578 141.199 345.577 135.932C343.681 130.56 342.733 124.556 342.733 117.92C342.733 111.179 343.575 105.122 345.261 99.75C346.946 94.2727 349.369 89.638 352.529 85.846C355.689 82.054 359.533 79.1573 364.063 77.156C368.697 75.1547 373.964 74.154 379.863 74.154C383.128 74.154 386.025 74.47 388.553 75.102C391.186 75.734 393.819 76.6293 396.453 77.788V40.184L419.995 36.392V156.314ZM422.288 118.078C422.288 110.705 423.394 104.279 425.606 98.802C427.923 93.2193 430.925 88.5847 434.612 84.898C438.299 81.2113 442.512 78.42 447.252 76.524C452.097 74.628 457.048 73.68 462.104 73.68C473.901 73.68 483.223 77.314 490.07 84.582C496.917 91.7447 500.34 102.331 500.34 116.34C500.34 117.709 500.287 119.237 500.182 120.922C500.077 122.502 499.971 123.924 499.866 125.188H446.462C446.989 130.033 449.253 133.878 453.256 136.722C457.259 139.566 462.631 140.988 469.372 140.988C473.691 140.988 477.904 140.619 482.012 139.882C486.225 139.039 489.649 138.039 492.282 136.88L495.442 155.998C494.178 156.63 492.493 157.262 490.386 157.894C488.279 158.526 485.909 159.053 483.276 159.474C480.748 160.001 478.009 160.422 475.06 160.738C472.111 161.054 469.161 161.212 466.212 161.212C458.733 161.212 452.203 160.106 446.62 157.894C441.143 155.682 436.561 152.68 432.874 148.888C429.293 144.991 426.607 140.409 424.816 135.142C423.131 129.875 422.288 124.187 422.288 118.078ZM477.588 109.072C477.483 107.071 477.114 105.122 476.482 103.226C475.955 101.33 475.06 99.6447 473.796 98.17C472.637 96.6953 471.11 95.484 469.214 94.536C467.423 93.588 465.159 93.114 462.42 93.114C459.787 93.114 457.522 93.588 455.626 94.536C453.73 95.3787 452.15 96.5373 450.886 98.012C449.622 99.4867 448.621 101.225 447.884 103.226C447.252 105.122 446.778 107.071 446.462 109.072H477.588ZM548.37 114.918C548.37 107.334 547.369 101.962 545.368 98.802C543.472 95.642 540.154 94.062 535.414 94.062C533.939 94.062 532.412 94.1673 530.832 94.378C529.252 94.4833 527.724 94.6413 526.25 94.852V159H502.708V78.736C504.709 78.2093 507.026 77.6827 509.66 77.156C512.398 76.524 515.242 75.9973 518.192 75.576C521.246 75.0493 524.354 74.6807 527.514 74.47C530.674 74.154 533.781 73.996 536.836 73.996C542.84 73.996 547.685 74.786 551.372 76.366C555.164 77.8407 558.271 79.6313 560.694 81.738C564.064 79.3153 567.909 77.4193 572.228 76.05C576.652 74.6807 580.707 73.996 584.394 73.996C591.03 73.996 596.454 74.944 600.668 76.84C604.986 78.6307 608.41 81.2113 610.938 84.582C613.466 87.9527 615.204 91.9553 616.152 96.59C617.1 101.225 617.574 106.386 617.574 112.074V159H594.032V114.918C594.032 107.334 593.031 101.962 591.03 98.802C589.134 95.642 585.816 94.062 581.076 94.062C579.812 94.062 578.021 94.378 575.704 95.01C573.492 95.642 571.648 96.432 570.174 97.38C570.911 99.8027 571.385 102.383 571.596 105.122C571.806 107.755 571.912 110.599 571.912 113.654V159H548.37V114.918ZM694.469 75.892C689.729 91.9027 684.778 106.913 679.617 120.922C674.456 134.931 668.82 148.519 662.711 161.686C660.499 166.426 658.287 170.429 656.075 173.694C653.863 177.065 651.44 179.803 648.807 181.91C646.174 184.122 643.172 185.702 639.801 186.65C636.536 187.703 632.691 188.23 628.267 188.23C624.58 188.23 621.157 187.861 617.997 187.124C614.942 186.492 612.414 185.755 610.413 184.912L614.521 166.11C616.944 166.953 619.103 167.532 620.999 167.848C622.895 168.164 624.896 168.322 627.003 168.322C631.216 168.322 634.429 167.163 636.641 164.846C638.958 162.634 640.907 159.527 642.487 155.524C637.115 144.991 631.743 133.193 626.371 120.132C620.999 106.965 615.943 92.2187 611.203 75.892H636.167C637.22 80 638.432 84.4767 639.801 89.322C641.276 94.062 642.803 98.9073 644.383 103.858C645.963 108.703 647.543 113.443 649.123 118.078C650.808 122.713 652.388 126.926 653.863 130.718C655.232 126.926 656.654 122.713 658.129 118.078C659.604 113.443 661.026 108.703 662.395 103.858C663.87 98.9073 665.239 94.062 666.503 89.322C667.872 84.4767 669.084 80 670.137 75.892H694.469Z" fill="black"/>
<rect width="200" height="200" rx="50" fill="#851BFF"/>
<path d="M90.9627 81.454L63.8493 75.2188C57.1042 73.6676 50.8608 79.2726 51.6781 86.1453L57.7824 137.478C58.5433 143.876 65.0681 147.896 71.1248 145.697L105.18 133.334C105.699 133.146 106.233 133 106.776 132.9L140.158 126.733C145.592 125.73 149.182 120.508 148.173 115.075L139.151 66.4727C137.769 59.0303 128.94 55.7618 123.045 60.5104L99.4772 79.4959C97.0893 81.4195 93.9509 82.1412 90.9627 81.454Z" fill="white"/>
</svg>
